<?xml version="1.0" encoding="UTF-8" standalone="no"?>
<svg width="100px" height="100px" viewBox="0 0 100 100" version="1.1" xmlns="http://www.w3.org/2000/svg" xmlns:xlink="http://www.w3.org/1999/xlink">
    <!-- Generator: Sketch 3.7.2 (28276) - http://www.bohemiancoding.com/sketch -->
    <title>Checklist@1x</title>
    <desc>Created with Sketch.</desc>
    <defs>
        <rect id="path-1" x="20" y="16" width="52" height="69" rx="1"></rect>
        <mask id="mask-2" maskContentUnits="userSpaceOnUse" maskUnits="objectBoundingBox" x="0" y="0" width="52" height="69" fill="white">
            <use xlink:href="#path-1"></use>
        </mask>
        <circle id="path-3" cx="40" cy="14" r="5"></circle>
        <mask id="mask-4" maskContentUnits="userSpaceOnUse" maskUnits="objectBoundingBox" x="0" y="0" width="10" height="10" fill="white">
            <use xlink:href="#path-3"></use>
        </mask>
        <circle id="path-5" cx="53" cy="14" r="5"></circle>
        <mask id="mask-6" maskContentUnits="userSpaceOnUse" maskUnits="objectBoundingBox" x="0" y="0" width="10" height="10" fill="white">
            <use xlink:href="#path-5"></use>
        </mask>
    </defs>
    <g id="Page-1" stroke="none" stroke-width="1" fill="none" fill-rule="evenodd">
        <g id="Checklist">
            <use id="Rectangle-6" stroke="#1B2021" mask="url(#mask-2)" stroke-width="8" stroke-linecap="square" xlink:href="#path-1"></use>
            <use id="Oval-3" stroke="#1B2021" mask="url(#mask-4)" stroke-width="10" stroke-linecap="square" xlink:href="#path-3"></use>
            <use id="Oval-3-Copy" stroke="#1B2021" mask="url(#mask-6)" stroke-width="10" stroke-linecap="square" xlink:href="#path-5"></use>
            <polyline id="Rectangle-6-Copy" stroke="#1B2021" stroke-width="2.16346154" stroke-linecap="round" stroke-linejoin="round" points="65 29 57.1333191 38 54 35.2632922"></polyline>
            <polyline id="Rectangle-6-Copy-2" stroke="#1B2021" stroke-width="2.16346154" stroke-linecap="round" stroke-linejoin="round" points="65 46 57.1333191 55 54 52.2632922"></polyline>
            <polyline id="Rectangle-6-Copy-3" stroke="#1B2021" stroke-width="2.16346154" stroke-linecap="round" stroke-linejoin="round" points="65 63 57.1333191 72 54 69.2632922"></polyline>
            <path d="M28,32.5 C28,33.0522847 28.3435009,33.5 28.7850117,33.5 L45.2149883,33.5 C45.6485383,33.5 46,33.0561352 46,32.5 L46,32.5 C46,31.9477153 45.6564991,31.5 45.2149883,31.5 L28.7850117,31.5 C28.3514617,31.5 28,31.9438648 28,32.5 L28,32.5" id="Rectangle-7" fill="#1B2021"></path>
            <path d="M28,42.625 C28,43.1772847 28.3435009,43.625 28.7850117,43.625 L45.2149883,43.625 C45.6485383,43.625 46,43.1811352 46,42.625 L46,42.625 C46,42.0727153 45.6564991,41.625 45.2149883,41.625 L28.7850117,41.625 C28.3514617,41.625 28,42.0688648 28,42.625 L28,42.625" id="Rectangle-7-Copy" fill="#1B2021"></path>
            <path d="M28,52.75 C28,53.3022847 28.3435009,53.75 28.7850117,53.75 L45.2149883,53.75 C45.6485383,53.75 46,53.3061352 46,52.75 L46,52.75 C46,52.1977153 45.6564991,51.75 45.2149883,51.75 L28.7850117,51.75 C28.3514617,51.75 28,52.1938648 28,52.75 L28,52.75" id="Rectangle-7-Copy-2" fill="#1B2021"></path>
            <path d="M28,62.875 C28,63.4272847 28.3435009,63.875 28.7850117,63.875 L45.2149883,63.875 C45.6485383,63.875 46,63.4311352 46,62.875 L46,62.875 C46,62.3227153 45.6564991,61.875 45.2149883,61.875 L28.7850117,61.875 C28.3514617,61.875 28,62.3188648 28,62.875 L28,62.875" id="Rectangle-7-Copy-3" fill="#1B2021"></path>
            <path d="M28,73 C28,73.5522847 28.3435009,74 28.7850117,74 L45.2149883,74 C45.6485383,74 46,73.5561352 46,73 L46,73 C46,72.4477153 45.6564991,72 45.2149883,72 L28.7850117,72 C28.3514617,72 28,72.4438648 28,73 L28,73" id="Rectangle-7-Copy-4" fill="#1B2021"></path>
        </g>
    </g>
</svg>