<?xml version="1.0" encoding="UTF-8" standalone="no"?>
<svg width="100px" height="100px" viewBox="0 0 100 100" version="1.1" xmlns="http://www.w3.org/2000/svg" xmlns:xlink="http://www.w3.org/1999/xlink">
    <!-- Generator: Sketch 3.7.2 (28276) - http://www.bohemiancoding.com/sketch -->
    <title>Trash@1x</title>
    <desc>Created with Sketch.</desc>
    <defs>
        <path d="M32.9468136,28 L67.5819323,28 C70.5249747,28 72.7324705,29.8000391 72.5137375,32.0081293 L67.6614174,80.9918707 C67.4421358,83.2054994 65.472341,85 63.2641606,85 L37.2645853,85 C35.055329,85 33.0860614,83.1999609 32.8673284,80.9918707 L28.0150084,32.0081293 C27.7957267,29.7945006 30.0052043,28 32.9468136,28 Z M49,38 L49,73.9294922 L49,74.9294922 L51,74.9294922 L51,73.9294922 L51,38 L51,37 L49,37 L49,38 Z M59.0033477,37.9182426 L56.0033477,74.4893328 L55.9215904,75.4859851 L57.9148949,75.6494999 L57.9966523,74.6528476 L60.9966523,38.0817574 L61.0784096,37.0851051 L59.0851051,36.9215904 L59.0033477,37.9182426 Z M39.0034677,38.0832073 L42.0034677,74.0126995 L42.0866751,75.0092317 L44.0797396,74.8428171 L43.9965323,73.8462848 L40.9965323,37.9167927 L40.9133249,36.9202604 L38.9202604,37.0866751 L39.0034677,38.0832073 Z" id="path-1"></path>
        <mask id="mask-2" maskContentUnits="userSpaceOnUse" maskUnits="objectBoundingBox" x="0" y="0" width="44.5286858" height="57" fill="white">
            <use xlink:href="#path-1"></use>
        </mask>
        <rect id="path-3" x="27.5" y="17" width="47" height="9" rx="7"></rect>
        <mask id="mask-4" maskContentUnits="userSpaceOnUse" maskUnits="objectBoundingBox" x="0" y="0" width="47" height="9" fill="white">
            <use xlink:href="#path-3"></use>
        </mask>
        <rect id="path-5" x="43" y="13" width="15" height="9" rx="7"></rect>
        <mask id="mask-6" maskContentUnits="userSpaceOnUse" maskUnits="objectBoundingBox" x="0" y="0" width="15" height="9" fill="white">
            <use xlink:href="#path-5"></use>
        </mask>
    </defs>
    <g id="Page-1" stroke="none" stroke-width="1" fill="none" fill-rule="evenodd" stroke-linecap="square">
        <g id="Trash" stroke="#1B2021" stroke-width="4" fill="#1B2021">
            <use id="Combined-Shape" mask="url(#mask-2)" xlink:href="#path-1"></use>
            <use id="Rectangle-16" mask="url(#mask-4)" xlink:href="#path-3"></use>
            <use id="Rectangle-16-Copy" mask="url(#mask-6)" transform="translate(50.500000, 17.500000) rotate(-270.000000) translate(-50.500000, -17.500000) " xlink:href="#path-5"></use>
        </g>
    </g>
</svg>